<svg xmlns="http://www.w3.org/2000/svg" viewBox="0 0 1280 1024" width="1280" height="1024">
  <g transform="matrix(1.921 0 0 1.921 640 407)">
    <g transform="matrix(0.236 0 0 -0.236 0 0)">
      <path fill="#ffffff" d="M 0 0 C -16.155 0 -29.251 13.095 -29.251 29.25 C -29.251 45.404 -16.155 58.5 0 58.5 C 16.154 58.5 29.25 45.404 29.25 29.25 C 29.25 13.095 16.154 0 0 0 M 140.219 -181.09 L 65.581 84.719 C 60.704 104.031 53.588 122.324 44.582 139.393 C 64.404 163.014 131.309 214.345 33.264 309.641 C 4.439 277.751 -32.978 279.193 -79.692 289.45 C -166.978 308.615 -265.025 305.671 -342.882 272.809 C -430.898 237.993 -493.189 152.2 -493.189 51.8 C -493.189 -12.112 -467.912 -70.086 -426.869 -112.798 C -415.564 -125.748 -403.505 -136.69 -391.492 -145.832 L -361.019 -244.657 L -167.436 -398.494 L -115.274 -321.202 L -11.995 -321.202 C 11.827 -321.202 31.697 -302.995 33.776 -279.265 L 40.946 -197.418 L 131.25 -193.476 C 137.533 -193.202 141.919 -187.144 140.219 -181.09"/>
    </g>
  </g>
  <g transform="matrix(1.921 0 0 1.921 640 661)">
    <g transform="matrix(1 0 0 1 0 0)">
      <path fill="#93c5fd" d="M 19.65 0.5 C 26.8 0.5 32.1 -2.5 35.55 -9 L 28.5 -12.85 C 26.75 -9.5 23.55 -7.5 19.65 -7.5 C 13.9 -7.5 9.65 -11.5 9.65 -17.5 C 9.65 -23.25 13.65 -27.5 19.65 -27.5 C 23.5 -27.5 26.4 -25.85 28.35 -22.4 L 35.5 -26.1 C 32.35 -31.9 26.55 -35.5 19.65 -35.5 C 9.2 -35.5 1.65 -28.4 1.65 -17.5 C 1.65 -7.05 8.75 0.5 19.65 0.5 Z M 48.1 0 L 56.1 0 L 56.1 -35 L 48.1 -35 Z M 79.4 0 L 88.4 0 L 100.4 -35 L 91.4 -35 L 83.9 -11.15 L 76.4 -35 L 67.4 -35 Z M 111.7 0 L 119.7 0 L 119.7 -35 L 111.7 -35 Z M 149.55 0.5 C 156.7 0.5 162 -2.5 165.45 -9 L 158.4 -12.85 C 156.65 -9.5 153.45 -7.5 149.55 -7.5 C 143.8 -7.5 139.55 -11.5 139.55 -17.5 C 139.55 -23.25 143.55 -27.5 149.55 -27.5 C 153.4 -27.5 156.3 -25.85 158.25 -22.4 L 165.4 -26.1 C 162.25 -31.9 156.45 -35.5 149.55 -35.5 C 139.1 -35.5 131.55 -28.4 131.55 -17.5 C 131.55 -7.05 138.65 0.5 149.55 0.5 Z M 194.5 0 L 197 0 L 205.5 -19.2 L 205.5 0 L 213.5 0 L 213.5 -35 L 205 -35 L 195.75 -15.55 L 186.5 -35 L 178 -35 L 178 0 L 186 0 L 186 -19.2 Z M 227.9 0 L 235.9 0 L 235.9 -35 L 227.9 -35 Z M 271.8 0 L 278.9 0 L 278.9 -35 L 270.9 -35 L 270.9 -15.3 L 258.8 -35 L 250.3 -35 L 250.3 0 L 258.3 0 L 258.3 -22 Z M 293.25 0 L 306 0 C 315.5 0 322.95 -7.35 322.95 -17.7 C 322.95 -27.45 315.95 -35 306 -35 L 293.25 -35 Z M 301.25 -7.5 L 301.25 -27.5 L 304.95 -27.5 C 310.4 -27.5 314.45 -23.5 314.45 -17.6 C 314.45 -11.8 310.55 -7.5 304.8 -7.5 Z"/>
    </g>
  </g>
</svg>
